<?xml version="1.0" encoding="utf-8"?><!-- Uploaded to: SVG Repo, www.svgrepo.com, Generator: SVG Repo Mixer Tools -->
<svg width="800px" height="800px" viewBox="0 0 24 24" fill="none" xmlns="http://www.w3.org/2000/svg">
<path fill-rule="evenodd" clip-rule="evenodd" d="M11 7.98098L14.2166 11.1976L17.5657 7.84849C18.0343 7.37986 18.0343 6.62006 17.5657 6.15143L13.0485 1.63427C12.2926 0.878314 11 1.41372 11 2.4828V7.98098ZM13 9.58575V4.41417L15.5858 6.99996L13 9.58575Z" fill="#0F0F0F"/>
<path d="M16.2344 19.1798L14.8202 17.7656L13 19.5857V15.9454L9.82021 12.7656L7.961 14.6248C7.94941 14.6353 7.93802 14.6462 7.92682 14.6574L6.39209 16.1921C6.00106 16.5832 6.00106 17.2171 6.39209 17.6082C6.78311 17.9992 7.4171 17.9992 7.80813 17.6082L9.34286 16.0734C9.35592 16.0604 9.36854 16.047 9.38073 16.0335L11 14.4142V21.5171C11 22.5862 12.2926 23.1216 13.0485 22.3656L16.2344 19.1798Z" fill="#0F0F0F"/>
<path d="M2.00789 3.42204C1.61737 3.03152 1.61737 2.39835 2.00789 2.00783C2.39841 1.6173 3.03158 1.6173 3.4221 2.00783L22.0004 20.5862C22.391 20.9767 22.391 21.6098 22.0004 22.0004C21.6099 22.3909 20.9767 22.3909 20.5862 22.0004L2.00789 3.42204Z" fill="#0F0F0F"/>
</svg>