<svg width="38" height="38" viewBox="0 0 38 38" fill="none" xmlns="http://www.w3.org/2000/svg">
<rect width="38" height="38" rx="19" fill="white" fill-opacity="0.16"/>
<path d="M27.0898 9.90998C27.1406 9.96077 27.1809 10.0211 27.2083 10.0874C27.2358 10.1538 27.25 10.2249 27.25 10.2967C27.25 10.3686 27.2358 10.4397 27.2083 10.506C27.1809 10.5724 27.1406 10.6327 27.0898 10.6835L24.9403 12.8329C25.5495 13.6115 25.8527 14.5862 25.7928 15.573C25.7328 16.5598 25.3138 17.4905 24.6148 18.1897L23.1523 19.6522C23.1015 19.703 23.0412 19.7433 22.9748 19.7708C22.9085 19.7983 22.8373 19.8125 22.7655 19.8125C22.6937 19.8125 22.6226 19.7983 22.5562 19.7708C22.4898 19.7433 22.4295 19.703 22.3788 19.6522L17.3475 14.621C17.2967 14.5702 17.2564 14.5099 17.2289 14.4435C17.2014 14.3772 17.1873 14.3061 17.1873 14.2342C17.1873 14.1624 17.2014 14.0913 17.2289 14.0249C17.2564 13.9586 17.2967 13.8983 17.3475 13.8475L18.8101 12.3849C19.5091 11.6857 20.4399 11.2666 21.4268 11.2068C22.4137 11.1469 23.3884 11.4503 24.1668 12.0599L26.3163 9.90998C26.367 9.85919 26.4273 9.81889 26.4937 9.7914C26.5601 9.76391 26.6312 9.74976 26.703 9.74976C26.7748 9.74976 26.846 9.76391 26.9123 9.7914C26.9787 9.81889 27.039 9.85919 27.0898 9.90998ZM12.0599 24.1668L9.91001 26.3162C9.80744 26.4188 9.74982 26.5579 9.74982 26.703C9.74982 26.848 9.80744 26.9872 9.91001 27.0897C10.0126 27.1923 10.1517 27.2499 10.2968 27.2499C10.4418 27.2499 10.5809 27.1923 10.6835 27.0897L12.833 24.9403C13.6116 25.5495 14.5862 25.8527 15.573 25.7927C16.5598 25.7328 17.4906 25.3138 18.1897 24.6148L19.6523 23.1522C19.7031 23.1014 19.7434 23.0412 19.7708 22.9748C19.7983 22.9084 19.8125 22.8373 19.8125 22.7655C19.8125 22.6937 19.7983 22.6225 19.7708 22.5562C19.7434 22.4898 19.7031 22.4295 19.6523 22.3787L19.0546 21.7811L20.5273 20.3085C20.6298 20.2059 20.6875 20.0668 20.6875 19.9217C20.6875 19.7767 20.6298 19.6376 20.5273 19.535C20.4247 19.4324 20.2856 19.3748 20.1405 19.3748C19.9955 19.3748 19.8563 19.4324 19.7538 19.535L18.2811 21.0076L15.9921 18.7186L17.4648 17.246C17.5673 17.1434 17.625 17.0043 17.625 16.8592C17.625 16.7142 17.5673 16.5751 17.4648 16.4725C17.3622 16.3699 17.2231 16.3123 17.078 16.3123C16.933 16.3123 16.7938 16.3699 16.6913 16.4725L15.2186 17.9451L14.621 17.3475C14.5702 17.2967 14.5099 17.2564 14.4436 17.2289C14.3772 17.2014 14.3061 17.1873 14.2343 17.1873C14.1624 17.1873 14.0913 17.2014 14.025 17.2289C13.9586 17.2564 13.8983 17.2967 13.8475 17.3475L12.385 18.81C11.6858 19.5091 11.2667 20.4399 11.2068 21.4268C11.1469 22.4137 11.4504 23.3883 12.0599 24.1668Z" fill="white"/>
</svg>
