<svg width="90" height="90" viewBox="0 0 90 90" fill="none" xmlns="http://www.w3.org/2000/svg">
<path d="M55.5 17.2982L80.6287 59.152C84.24 65.1632 82.4663 73.072 76.665 76.8145C74.7191 78.0777 72.4487 78.7499 70.1288 78.7495H19.8675C13.0388 78.7495 7.5 73.012 7.5 65.9282C7.5 63.532 8.14875 61.1882 9.3675 59.152L34.5 17.2982C38.1075 11.287 45.735 9.44572 51.5363 13.1882C53.1413 14.2232 54.4988 15.6295 55.5 17.2982ZM47.175 20.4445C46.7159 20.1492 46.2017 19.95 45.6635 19.859C45.1253 19.768 44.5742 19.787 44.0436 19.915C43.513 20.0429 43.0137 20.2771 42.5761 20.6033C42.1385 20.9296 41.7716 21.3412 41.4975 21.8132L16.3688 63.6745C15.9606 64.3567 15.7454 65.137 15.7462 65.932C15.7462 68.2945 17.5913 70.207 19.8713 70.207H70.125C70.8975 70.207 71.6513 69.982 72.3038 69.562C73.2401 68.9399 73.9003 67.9805 74.1469 66.8838C74.3935 65.7871 74.2074 64.6375 73.6275 63.6745L48.4987 21.8132C48.1713 21.2604 47.7193 20.7917 47.1788 20.4445H47.175ZM45 63.7495C44.0054 63.7495 43.0516 63.3544 42.3484 62.6511C41.6451 61.9479 41.25 60.994 41.25 59.9995C41.25 59.0049 41.6451 58.0511 42.3484 57.3478C43.0516 56.6446 44.0054 56.2495 45 56.2495C45.9946 56.2495 46.9484 56.6446 47.6516 57.3478C48.3549 58.0511 48.75 59.0049 48.75 59.9995C48.75 60.994 48.3549 61.9479 47.6516 62.6511C46.9484 63.3544 45.9946 63.7495 45 63.7495ZM45 29.9995C45.9946 29.9995 46.9484 30.3946 47.6516 31.0978C48.3549 31.8011 48.75 32.7549 48.75 33.7495V48.7495C48.75 49.744 48.3549 50.6979 47.6516 51.4011C46.9484 52.1044 45.9946 52.4995 45 52.4995C44.0054 52.4995 43.0516 52.1044 42.3484 51.4011C41.6451 50.6979 41.25 49.744 41.25 48.7495V33.7495C41.25 32.7549 41.6451 31.8011 42.3484 31.0978C43.0516 30.3946 44.0054 29.9995 45 29.9995Z" fill="#E41C01"/>
</svg>
