<svg width="41" height="41" viewBox="0 0 41 41" fill="none" xmlns="http://www.w3.org/2000/svg">
<g opacity="0.15">
<circle cx="20.5" cy="20.5" r="20.5" fill="#F4F4F4"/>
<circle cx="20.5" cy="20.5" r="20.5" fill="black" fill-opacity="0.2"/>
</g>
<path d="M20.3453 9.74092C20.2632 9.75119 20.0168 9.80766 19.8064 9.85899C17.6247 10.4082 15.9205 12.2973 15.592 14.5251C15.5099 15.1103 15.5561 16.0753 15.7049 16.6348C16.0591 18.0208 16.9061 19.2014 18.1124 19.9971C18.944 20.5463 19.0364 20.7363 19.0364 21.8707V22.6304L18.5949 22.6458C18.0097 22.6715 18.0097 22.6715 18.0097 23.539C18.0097 24.3808 18.0149 24.386 18.6154 24.386H19.0364V25.1046V25.8233L17.8198 25.813L16.5981 25.7976L16.5827 25.6436C16.5776 25.5564 16.557 25.4383 16.5468 25.3716C16.5006 25.1868 16.172 24.8531 15.9667 24.7966C15.8589 24.771 15.3405 24.7453 14.8015 24.7453C13.9648 24.7453 13.7954 24.7607 13.6208 24.8428C13.2666 25.0071 13.0818 25.2843 13.0818 25.6488V25.8233H12.8354C12.6558 25.8233 12.5583 25.8489 12.4967 25.9157C12.4505 25.967 12.2708 26.4393 12.0911 26.9577L11.7729 27.9022L11.121 27.9176C10.4896 27.933 10.4639 27.933 10.3612 28.0665C10.2329 28.2308 10.2329 28.2924 10.3664 28.4618L10.469 28.5952H21.141H31.8129L31.9156 28.4618C32.0491 28.2924 32.0491 28.2308 31.9207 28.0665C31.8181 27.933 31.7924 27.933 31.161 27.9176L30.5091 27.9022L30.1908 26.9577C30.0112 26.4393 29.8315 25.967 29.7853 25.9157C29.7135 25.8387 29.6211 25.8233 29.2669 25.8233H28.8408V25.3921C28.8408 24.9866 28.8305 24.9506 28.7073 24.8531C28.5841 24.7556 28.502 24.7453 27.7782 24.7453C27.0083 24.7453 26.9826 24.7504 26.8645 24.8736C26.7516 24.9866 26.7362 25.0379 26.7362 25.4126V25.8284L26.5719 25.813L26.4025 25.7976L26.3769 25.351C26.3615 25.0841 26.3255 24.8788 26.2845 24.8377C26.2383 24.7915 25.9816 24.7658 25.381 24.7556C24.3133 24.735 24.3082 24.735 24.2774 25.3818L24.262 25.8233H23.7538H23.2456V25.1046V24.386H23.6717C24.2671 24.386 24.2722 24.3808 24.2722 23.5339C24.2722 23.1694 24.2517 22.846 24.2312 22.8152C24.1542 22.6972 23.9591 22.6407 23.6101 22.6407H23.2456V21.8758C23.2456 20.7311 23.338 20.5463 24.1799 19.9919C25.381 19.1963 26.2177 18.0208 26.5873 16.6092C26.69 16.2139 26.7105 16.024 26.7105 15.3002C26.7105 14.2274 26.5873 13.6678 26.1459 12.7849C25.3554 11.209 23.8513 10.0848 22.1214 9.78199C21.7262 9.71012 20.7201 9.68959 20.3453 9.74092ZM22.1676 10.5006C24.2363 10.937 25.8225 12.7233 26.0175 14.8331C26.1869 16.6759 25.3092 18.4315 23.7076 19.4684C23.2199 19.7866 22.9479 20.0587 22.7682 20.418C22.5834 20.7825 22.527 21.1315 22.527 21.922V22.6407H22.0136H21.5003V20.0227V17.3997L21.9469 17.7385C22.3319 18.0259 22.4192 18.0773 22.5783 18.0619C22.7426 18.0465 22.7888 18.0054 23.1275 17.5075C23.5844 16.835 23.6357 16.7221 23.5639 16.5527C23.492 16.3987 23.2867 16.3114 23.1275 16.373C23.0608 16.3987 22.8863 16.604 22.7374 16.835C22.4962 17.1943 22.4551 17.2405 22.3781 17.1841C22.3319 17.1533 22.065 16.9531 21.7826 16.7426C21.449 16.4911 21.2283 16.3628 21.141 16.3628C21.0229 16.3628 20.7252 16.563 19.8782 17.2097C19.8372 17.2354 19.7294 17.1122 19.5446 16.835C19.3957 16.6092 19.2212 16.3987 19.1544 16.373C18.9953 16.3114 18.79 16.3987 18.7181 16.5527C18.6462 16.7221 18.6976 16.835 19.1544 17.5075C19.4932 18.0054 19.5394 18.0465 19.7037 18.0619C19.8628 18.0773 19.9501 18.0259 20.3351 17.7385L20.7817 17.3997V20.0227V22.6407H20.2683H19.755V21.9528C19.755 21.1777 19.7037 20.8389 19.5292 20.4591C19.3598 20.0843 19.0826 19.7969 18.5744 19.4632C17.0755 18.4777 16.2644 17.025 16.2542 15.3105C16.2542 14.7253 16.3106 14.3505 16.48 13.8116C17.0498 12.0303 18.7027 10.6598 20.5763 10.4236C20.9921 10.3672 21.7159 10.4031 22.1676 10.5006ZM23.6049 23.539V23.7187H21.141H18.677V23.539V23.3593H21.141H23.6049V23.539ZM22.527 24.5656V24.7453H21.6081C20.7919 24.7453 20.679 24.7556 20.5712 24.8377C20.4121 24.9712 20.4121 25.2381 20.5712 25.3716C20.679 25.4537 20.7919 25.464 21.6081 25.464H22.527V25.6436V25.8233H21.141H19.755V25.1046V24.386H21.141H22.527V24.5656ZM15.8538 25.5718C15.9821 25.8079 15.9308 25.8233 14.8271 25.8233H13.8005V25.6795C13.8005 25.5974 13.8159 25.5153 13.8364 25.4999C13.8518 25.4794 14.3035 25.464 14.8323 25.464C15.7562 25.464 15.8024 25.4691 15.8538 25.5718ZM25.6993 25.6282L25.6839 25.7976L25.34 25.813L24.9909 25.8284V25.6436V25.464H25.3554H25.7147L25.6993 25.6282ZM28.1632 25.6282L28.1478 25.7976L27.8039 25.813L27.4548 25.8284V25.6436V25.464H27.8193H28.1786L28.1632 25.6282ZM29.5133 27.1425C29.6313 27.507 29.7391 27.8304 29.7545 27.8612C29.7699 27.9125 29.5595 27.9279 28.7946 27.9279H27.8142V27.5172C27.8142 27.1425 27.7988 27.0912 27.6858 26.9783C27.5267 26.814 27.383 26.814 27.2238 26.9783C27.1109 27.0912 27.0955 27.1425 27.0955 27.5172V27.933L26.7516 27.9176L26.4025 27.9022L26.3769 27.4505C26.3563 27.0758 26.3307 26.9834 26.2537 26.9218C26.1305 26.8345 26.0637 26.8294 25.8892 26.9115C25.7352 26.9783 25.7147 27.0553 25.6993 27.5429L25.6839 27.9022L25.34 27.9176L24.9909 27.933V27.4967C24.9909 27.0912 24.9806 27.0553 24.8574 26.9577C24.688 26.8243 24.5751 26.8243 24.4211 26.9475C24.3133 27.0347 24.2979 27.0963 24.2774 27.4864L24.262 27.9279H23.9335H23.6049V27.5172C23.6049 27.1425 23.5895 27.0912 23.4766 26.9783C23.4099 26.9064 23.3021 26.8499 23.2456 26.8499C23.1891 26.8499 23.0813 26.9064 23.0146 26.9783C22.9017 27.0912 22.8863 27.1425 22.8863 27.5172V27.933L22.5424 27.9176L22.1933 27.9022L22.1676 27.4505C22.1471 27.0758 22.1214 26.9834 22.0444 26.9218C21.9058 26.8243 21.7929 26.8294 21.6338 26.9577C21.5106 27.0553 21.5003 27.0912 21.5003 27.4967V27.9279H17.0036C13.4258 27.9279 12.5121 27.9125 12.5275 27.8612C12.5429 27.8304 12.6507 27.507 12.7687 27.1425L12.9894 26.4906H21.141H29.2925L29.5133 27.1425Z" fill="#023059"/>
<path d="M12.7483 10.1621C12.312 10.3674 12.0554 10.7781 12.0554 11.2812C12.0554 11.6508 12.1837 11.9331 12.4403 12.1641C12.7945 12.4721 13.1949 12.5542 13.6672 12.4156C13.9444 12.3335 14.3242 11.9536 14.4064 11.6764C14.4885 11.3941 14.4834 11.0245 14.3961 10.814C14.2934 10.5676 14.0111 10.2648 13.775 10.1621C13.5029 10.0338 13.0204 10.0389 12.7483 10.1621ZM13.5235 10.8294C14.0419 11.1477 13.6723 11.9433 13.0974 11.7534C12.543 11.5738 12.6713 10.7524 13.2617 10.737C13.3181 10.7319 13.4362 10.7781 13.5235 10.8294Z" fill="#023059"/>
<path d="M28.2866 13.2776C28.1172 13.3957 28.1326 13.6626 28.3328 13.8885L28.492 14.0682L28.3328 14.2478C28.1326 14.4737 28.1172 14.7406 28.2866 14.8587C28.4612 14.9819 28.6152 14.9562 28.8256 14.7663L29.0207 14.5917L29.2209 14.7663C29.4621 14.9767 29.6213 14.987 29.7958 14.8073C29.9601 14.6482 29.9293 14.4737 29.6983 14.2324L29.5391 14.0682L29.6983 13.8988C29.919 13.6729 29.9549 13.5086 29.8163 13.3341C29.6623 13.139 29.4724 13.1544 29.2209 13.37L29.0207 13.5446L28.8256 13.37C28.6152 13.1801 28.4612 13.1544 28.2866 13.2776Z" fill="#023059"/>
<path d="M30.5709 17.1379C30.3656 17.3638 30.535 17.7642 30.8327 17.7642C31.1407 17.7642 31.3153 17.3638 31.0997 17.1482C30.9662 17.0147 30.6839 17.0147 30.5709 17.1379Z" fill="#023059"/>
</svg>
