<svg width="41" height="42" viewBox="0 0 41 42" fill="none" xmlns="http://www.w3.org/2000/svg">
<g opacity="0.15">
<circle cx="20.5" cy="21.0537" r="20.5" fill="#F4F4F4"/>
<circle cx="20.5" cy="21.0537" r="20.5" fill="black" fill-opacity="0.2"/>
</g>
<path d="M19.7043 10.0998C19.6222 10.1101 19.3758 10.1665 19.1653 10.2179C16.9837 10.7671 15.2795 12.6562 14.9509 14.884C14.8688 15.4692 14.915 16.4342 15.0639 16.9937C15.4181 18.3797 16.265 19.5603 17.4713 20.356C18.3029 20.9052 18.3953 21.0952 18.3953 22.2296V22.9893L17.9539 23.0047C17.3687 23.0304 17.3687 23.0304 17.3687 23.8979C17.3687 24.7397 17.3738 24.7449 17.9744 24.7449H18.3953V25.4635V26.1822L17.1787 26.1719L15.957 26.1565L15.9416 26.0025C15.9365 25.9152 15.916 25.7972 15.9057 25.7304C15.8595 25.5456 15.531 25.212 15.3257 25.1555C15.2179 25.1299 14.6994 25.1042 14.1604 25.1042C13.3237 25.1042 13.1543 25.1196 12.9798 25.2017C12.6256 25.366 12.4408 25.6432 12.4408 26.0076V26.1822H12.1944C12.0147 26.1822 11.9172 26.2078 11.8556 26.2746C11.8094 26.3259 11.6297 26.7982 11.4501 27.3166L11.1318 28.2611L10.4799 28.2765C9.84852 28.2919 9.82285 28.2919 9.72019 28.4254C9.59186 28.5896 9.59186 28.6512 9.72532 28.8206L9.82799 28.9541H20.4999H31.1719L31.2746 28.8206C31.408 28.6512 31.408 28.5896 31.2797 28.4254C31.177 28.2919 31.1514 28.2919 30.52 28.2765L29.8681 28.2611L29.5498 27.3166C29.3701 26.7982 29.1905 26.3259 29.1443 26.2746C29.0724 26.1976 28.98 26.1822 28.6258 26.1822H28.1998V25.751C28.1998 25.3455 28.1895 25.3095 28.0663 25.212C27.9431 25.1145 27.861 25.1042 27.1372 25.1042C26.3672 25.1042 26.3415 25.1093 26.2235 25.2325C26.1105 25.3455 26.0951 25.3968 26.0951 25.7715V26.1873L25.9309 26.1719L25.7615 26.1565L25.7358 25.7099C25.7204 25.443 25.6845 25.2377 25.6434 25.1966C25.5972 25.1504 25.3406 25.1247 24.74 25.1145C23.6723 25.0939 23.6671 25.0939 23.6363 25.7407L23.6209 26.1822H23.1127H22.6046V25.4635V24.7449H23.0306C23.6261 24.7449 23.6312 24.7397 23.6312 23.8928C23.6312 23.5283 23.6107 23.2049 23.5901 23.1741C23.5131 23.056 23.3181 22.9996 22.969 22.9996H22.6046V22.2347C22.6046 21.09 22.697 20.9052 23.5388 20.3508C24.74 19.5552 25.5767 18.3797 25.9463 16.968C26.0489 16.5728 26.0695 16.3829 26.0695 15.6591C26.0695 14.5862 25.9463 14.0267 25.5048 13.1438C24.7143 11.5679 23.2103 10.4437 21.4804 10.1409C21.0851 10.069 20.079 10.0485 19.7043 10.0998ZM21.5266 10.8595C23.5953 11.2958 25.1814 13.0822 25.3765 15.192C25.5459 17.0348 24.6681 18.7903 23.0665 19.8272C22.5789 20.1455 22.3068 20.4176 22.1272 20.7769C21.9424 21.1414 21.8859 21.4904 21.8859 22.2809V22.9996H21.3726H20.8593V20.3816V17.7586L21.3059 18.0974C21.6908 18.3848 21.7781 18.4361 21.9372 18.4207C22.1015 18.4053 22.1477 18.3643 22.4865 17.8664C22.9433 17.1939 22.9947 17.081 22.9228 16.9116C22.8509 16.7576 22.6456 16.6703 22.4865 16.7319C22.4198 16.7576 22.2452 16.9629 22.0964 17.1939C21.8551 17.5532 21.814 17.5994 21.737 17.543C21.6908 17.5122 21.4239 17.312 21.1416 17.1015C20.8079 16.85 20.5872 16.7217 20.4999 16.7217C20.3819 16.7217 20.0841 16.9219 19.2372 17.5686C19.1961 17.5943 19.0883 17.4711 18.9035 17.1939C18.7546 16.968 18.5801 16.7576 18.5134 16.7319C18.3543 16.6703 18.1489 16.7576 18.0771 16.9116C18.0052 17.081 18.0565 17.1939 18.5134 17.8664C18.8522 18.3643 18.8984 18.4053 19.0626 18.4207C19.2218 18.4361 19.309 18.3848 19.694 18.0974L20.1406 17.7586V20.3816V22.9996H19.6273H19.114V22.3117C19.114 21.5366 19.0626 21.1978 18.8881 20.818C18.7187 20.4432 18.4415 20.1558 17.9333 19.8221C16.4344 18.8365 15.6234 17.3838 15.6131 15.6693C15.6131 15.0842 15.6696 14.7094 15.839 14.1704C16.4088 12.3892 18.0617 11.0187 19.9353 10.7825C20.3511 10.7261 21.0749 10.762 21.5266 10.8595ZM22.9639 23.8979V24.0775H20.4999H18.036V23.8979V23.7182H20.4999H22.9639V23.8979ZM21.8859 24.9245V25.1042H20.9671C20.1509 25.1042 20.0379 25.1145 19.9302 25.1966C19.771 25.3301 19.771 25.597 19.9302 25.7304C20.0379 25.8126 20.1509 25.8228 20.9671 25.8228H21.8859V26.0025V26.1822H20.4999H19.114V25.4635V24.7449H20.4999H21.8859V24.9245ZM15.2127 25.9306C15.3411 26.1668 15.2897 26.1822 14.1861 26.1822H13.1594V26.0384C13.1594 25.9563 13.1748 25.8742 13.1954 25.8588C13.2108 25.8382 13.6625 25.8228 14.1912 25.8228C15.1152 25.8228 15.1614 25.828 15.2127 25.9306ZM25.0582 25.9871L25.0428 26.1565L24.6989 26.1719L24.3498 26.1873V26.0025V25.8228H24.7143H25.0736L25.0582 25.9871ZM27.5222 25.9871L27.5068 26.1565L27.1628 26.1719L26.8138 26.1873V26.0025V25.8228H27.1782H27.5376L27.5222 25.9871ZM28.8722 27.5014C28.9903 27.8659 29.0981 28.1893 29.1135 28.2201C29.1289 28.2714 28.9184 28.2868 28.1536 28.2868H27.1731V27.8761C27.1731 27.5014 27.1577 27.4501 27.0448 27.3371C26.8857 27.1729 26.7419 27.1729 26.5828 27.3371C26.4699 27.4501 26.4545 27.5014 26.4545 27.8761V28.2919L26.1105 28.2765L25.7615 28.2611L25.7358 27.8094C25.7153 27.4347 25.6896 27.3423 25.6126 27.2807C25.4894 27.1934 25.4227 27.1883 25.2482 27.2704C25.0942 27.3371 25.0736 27.4141 25.0582 27.9018L25.0428 28.2611L24.6989 28.2765L24.3498 28.2919V27.8556C24.3498 27.4501 24.3396 27.4141 24.2164 27.3166C24.047 27.1831 23.9341 27.1831 23.7801 27.3063C23.6723 27.3936 23.6569 27.4552 23.6363 27.8453L23.6209 28.2868H23.2924H22.9639V27.8761C22.9639 27.5014 22.9485 27.4501 22.8355 27.3371C22.7688 27.2653 22.661 27.2088 22.6046 27.2088C22.5481 27.2088 22.4403 27.2653 22.3736 27.3371C22.2606 27.4501 22.2452 27.5014 22.2452 27.8761V28.2919L21.9013 28.2765L21.5522 28.2611L21.5266 27.8094C21.506 27.4347 21.4804 27.3423 21.4034 27.2807C21.2648 27.1831 21.1519 27.1883 20.9927 27.3166C20.8695 27.4141 20.8593 27.4501 20.8593 27.8556V28.2868H16.3626C12.7847 28.2868 11.871 28.2714 11.8864 28.2201C11.9018 28.1893 12.0096 27.8659 12.1277 27.5014L12.3484 26.8495H20.4999H28.6515L28.8722 27.5014Z" fill="#023059"/>
<path d="M12.1073 10.5208C11.671 10.7261 11.4143 11.1367 11.4143 11.6398C11.4143 12.0094 11.5426 12.2917 11.7993 12.5227C12.1535 12.8307 12.5539 12.9128 13.0261 12.7742C13.3033 12.6921 13.6832 12.3123 13.7653 12.0351C13.8474 11.7527 13.8423 11.3831 13.755 11.1727C13.6524 10.9263 13.37 10.6234 13.1339 10.5208C12.8619 10.3924 12.3793 10.3976 12.1073 10.5208ZM12.8824 11.1881C13.4008 11.5063 13.0313 12.302 12.4563 12.1121C11.9019 11.9324 12.0303 11.1111 12.6206 11.0957C12.6771 11.0906 12.7951 11.1367 12.8824 11.1881Z" fill="#023059"/>
<path d="M27.6456 13.6365C27.4762 13.7546 27.4916 14.0215 27.6918 14.2474L27.8509 14.427L27.6918 14.6067C27.4916 14.8326 27.4762 15.0995 27.6456 15.2176C27.8201 15.3408 27.9741 15.3151 28.1846 15.1252L28.3796 14.9506L28.5798 15.1252C28.8211 15.3356 28.9802 15.3459 29.1548 15.1662C29.319 15.0071 29.2882 14.8326 29.0572 14.5913L28.8981 14.427L29.0572 14.2576C29.278 14.0318 29.3139 13.8675 29.1753 13.693C29.0213 13.4979 28.8314 13.5133 28.5798 13.7289L28.3796 13.9035L28.1846 13.7289C27.9741 13.539 27.8201 13.5133 27.6456 13.6365Z" fill="#023059"/>
<path d="M29.9299 17.4968C29.7246 17.7227 29.894 18.123 30.1917 18.123C30.4997 18.123 30.6742 17.7227 30.4586 17.5071C30.3252 17.3736 30.0428 17.3736 29.9299 17.4968Z" fill="#023059"/>
</svg>
