<svg width="68" height="68" viewBox="0 0 68 68" fill="none" xmlns="http://www.w3.org/2000/svg">
<path d="M56.1466 11.1273C56.2799 11.2607 56.3858 11.419 56.458 11.5932C56.5302 11.7675 56.5673 11.9543 56.5673 12.1429C56.5673 12.3315 56.5302 12.5183 56.458 12.6926C56.3858 12.8668 56.2799 13.0252 56.1466 13.1585L50.5021 18.803C52.1019 20.8476 52.8981 23.407 52.7407 25.9984C52.5832 28.5897 51.4829 31.0339 49.6474 32.8698L45.8067 36.7105C45.6733 36.8439 45.515 36.9497 45.3407 37.0219C45.1665 37.0941 44.9797 37.1313 44.791 37.1313C44.6024 37.1313 44.4156 37.0941 44.2414 37.0219C44.0671 36.9497 43.9088 36.8439 43.7754 36.7105L30.5633 23.4984C30.43 23.3651 30.3241 23.2067 30.2519 23.0325C30.1798 22.8582 30.1426 22.6714 30.1426 22.4828C30.1426 22.2942 30.1798 22.1074 30.2519 21.9331C30.3241 21.7589 30.43 21.6006 30.5633 21.4672L34.404 17.6265C36.2397 15.7904 38.6841 14.6899 41.2756 14.5326C43.8672 14.3754 46.4267 15.1723 48.4709 16.7729L54.1153 11.1273C54.2487 10.9939 54.407 10.8881 54.5813 10.8159C54.7555 10.7437 54.9423 10.7065 55.1309 10.7065C55.3196 10.7065 55.5063 10.7437 55.6806 10.8159C55.8549 10.8881 56.0132 10.9939 56.1466 11.1273ZM16.678 48.5658L11.0324 54.2102C10.7631 54.4796 10.6118 54.8449 10.6118 55.2258C10.6118 55.6067 10.7631 55.9721 11.0324 56.2414C11.3018 56.5108 11.6671 56.6621 12.048 56.6621C12.429 56.6621 12.7943 56.5108 13.0636 56.2414L18.7081 50.597C20.7528 52.1967 23.3122 52.993 25.9035 52.8355C28.4949 52.6781 30.939 51.5778 32.7749 49.7422L36.6156 45.9015C36.749 45.7682 36.8548 45.6098 36.927 45.4356C36.9992 45.2613 37.0364 45.0745 37.0364 44.8859C37.0364 44.6973 36.9992 44.5105 36.927 44.3363C36.8548 44.162 36.749 44.0037 36.6156 43.8703L35.0463 42.3009L38.9134 38.4338C39.1827 38.1645 39.3341 37.7991 39.3341 37.4182C39.3341 37.0373 39.1827 36.672 38.9134 36.4026C38.644 36.1332 38.2787 35.9819 37.8978 35.9819C37.5169 35.9819 37.1515 36.1332 36.8822 36.4026L33.0151 40.2697L27.0041 34.2588L30.8713 30.3917C31.1406 30.1223 31.2919 29.757 31.2919 29.3761C31.2919 28.9951 31.1406 28.6298 30.8713 28.3605C30.6019 28.0911 30.2366 27.9398 29.8556 27.9398C29.4747 27.9398 29.1094 28.0911 28.84 28.3605L24.9729 32.2276L23.4035 30.6582C23.2702 30.5248 23.1119 30.419 22.9376 30.3468C22.7633 30.2746 22.5766 30.2375 22.3879 30.2375C22.1993 30.2375 22.0125 30.2746 21.8383 30.3468C21.664 30.419 21.5057 30.5248 21.3723 30.6582L17.5316 34.4989C15.6956 36.3346 14.595 38.7789 14.4378 41.3705C14.2805 43.9621 15.0774 46.5215 16.678 48.5658Z" fill="#023059"/>
</svg>
