<svg width="46" height="46" viewBox="0 0 46 46" fill="none" xmlns="http://www.w3.org/2000/svg">
<path fill-rule="evenodd" clip-rule="evenodd" d="M20.2643 5.16388C23.7499 4.37928 26.2783 7.375 26.2783 10.3369V36.6151C26.2783 39.5771 23.7499 42.5728 20.2643 41.7882C11.8891 39.9037 5.6311 32.4219 5.6311 23.476C5.6311 14.5302 11.8891 7.0484 20.2643 5.16388ZM30.5823 16.5179C30.9342 16.166 31.4116 15.9684 31.9093 15.9684C32.407 15.9684 32.8844 16.166 33.2364 16.5179L38.8674 22.149C39.2193 22.501 39.417 22.9783 39.417 23.476C39.417 23.9737 39.2193 24.4511 38.8674 24.8031L33.2364 30.4341C32.8823 30.776 32.4082 30.9652 31.9161 30.9609C31.4239 30.9567 30.9531 30.7593 30.6051 30.4113C30.2571 30.0632 30.0597 29.5925 30.0554 29.1003C30.0511 28.6082 30.2403 28.134 30.5823 27.78L33.0092 25.353H16.8932C16.3954 25.353 15.9179 25.1553 15.5659 24.8033C15.2139 24.4513 15.0162 23.9738 15.0162 23.476C15.0162 22.9782 15.2139 22.5008 15.5659 22.1488C15.9179 21.7968 16.3954 21.599 16.8932 21.599H33.0092L30.5823 19.172C30.2304 18.82 30.0327 18.3427 30.0327 17.845C30.0327 17.3473 30.2304 16.8699 30.5823 16.5179Z" fill="#023059"/>
</svg>
