<svg width="38" height="38" viewBox="0 0 38 38" fill="none" xmlns="http://www.w3.org/2000/svg">
<rect width="38" height="38" rx="19" fill="white" fill-opacity="0.16"/>
<path fill-rule="evenodd" clip-rule="evenodd" d="M18.4465 9.96364C20.0714 9.59789 21.25 10.9944 21.25 12.3751V24.6251C21.25 26.0059 20.0714 27.4024 18.4465 27.0366C14.5422 26.1581 11.625 22.6704 11.625 18.5001C11.625 14.3299 14.5422 10.8421 18.4465 9.96364ZM23.2564 15.2565C23.4205 15.0925 23.643 15.0003 23.875 15.0003C24.107 15.0003 24.3295 15.0925 24.4936 15.2565L27.1186 17.8815C27.2827 18.0456 27.3748 18.2681 27.3748 18.5001C27.3748 18.7322 27.2827 18.9547 27.1186 19.1188L24.4936 21.7438C24.3286 21.9031 24.1076 21.9913 23.8781 21.9893C23.6487 21.9874 23.4293 21.8953 23.267 21.7331C23.1048 21.5709 23.0128 21.3514 23.0108 21.122C23.0088 20.8926 23.097 20.6715 23.2564 20.5065L24.3878 19.3751H16.875C16.6429 19.3751 16.4204 19.2829 16.2563 19.1189C16.0922 18.9548 16 18.7322 16 18.5001C16 18.2681 16.0922 18.0455 16.2563 17.8814C16.4204 17.7173 16.6429 17.6251 16.875 17.6251H24.3878L23.2564 16.4938C23.0923 16.3297 23.0002 16.1072 23.0002 15.8751C23.0002 15.6431 23.0923 15.4206 23.2564 15.2565Z" fill="white"/>
</svg>
