<svg width="52" height="32" viewBox="0 0 52 32" fill="none" xmlns="http://www.w3.org/2000/svg">
<path d="M0 15.7642C0 7.05789 7.05788 0 15.7642 0H36.0325C44.7389 0 51.7967 7.05789 51.7967 15.7642C51.7967 24.4706 44.7389 31.5285 36.0325 31.5285H15.7642C7.05788 31.5285 0 24.4706 0 15.7642Z" fill="url(#paint0_linear_344_811)"/>
<path d="M23.7519 19.3532C24.0011 19.3532 24.2102 19.2687 24.3791 19.0998C24.548 18.9309 24.6322 18.7221 24.6316 18.4735V13.1953C24.6316 12.946 24.5471 12.7372 24.3782 12.5689C24.2093 12.4006 24.0006 12.3161 23.7519 12.3156C23.5032 12.315 23.2945 12.3994 23.1256 12.5689C22.9566 12.7384 22.8722 12.9472 22.8722 13.1953V18.4735C22.8722 18.7227 22.9566 18.9318 23.1256 19.1007C23.2945 19.2696 23.5032 19.3537 23.7519 19.3532ZM27.4246 18.6714L30.8555 16.3842C31.0607 16.2522 31.1634 16.0689 31.1634 15.8344C31.1634 15.5998 31.0607 15.4165 30.8555 15.2845L27.4246 12.9973C27.2047 12.8507 26.9775 12.8396 26.7429 12.9639C26.5083 13.0882 26.391 13.2826 26.391 13.5471V18.1216C26.391 18.3855 26.5083 18.5799 26.7429 18.7048C26.9775 18.8297 27.2047 18.8186 27.4246 18.6714ZM26.391 24.6314C25.1741 24.6314 24.0305 24.4003 22.9602 23.9381C21.8899 23.476 20.9588 22.8494 20.1671 22.0582C19.3754 21.2671 18.7487 20.3361 18.2872 19.2652C17.8256 18.1943 17.5946 17.0507 17.594 15.8344C17.5934 14.618 17.8245 13.4744 18.2872 12.4035C18.7499 11.3326 19.3766 10.4016 20.1671 9.61048C20.9577 8.81933 21.8887 8.19269 22.9602 7.73056C24.0316 7.26842 25.1753 7.03735 26.391 7.03735C27.6067 7.03735 28.7504 7.26842 29.8218 7.73056C30.8933 8.19269 31.8243 8.81933 32.6149 9.61048C33.4054 10.4016 34.0324 11.3326 34.4957 12.4035C34.959 13.4744 35.1898 14.618 35.188 15.8344C35.1862 17.0507 34.9552 18.1943 34.4948 19.2652C34.0344 20.3361 33.4078 21.2671 32.6149 22.0582C31.822 22.8494 30.891 23.4763 29.8218 23.939C28.7527 24.4018 27.6091 24.6325 26.391 24.6314Z" fill="white"/>
<defs>
<linearGradient id="paint0_linear_344_811" x1="25.8984" y1="0" x2="25.8984" y2="31.5285" gradientUnits="userSpaceOnUse">
<stop stop-color="#009400"/>
<stop offset="1" stop-color="#008800"/>
</linearGradient>
</defs>
</svg>
