<svg width="52" height="32" viewBox="0 0 52 32" fill="none" xmlns="http://www.w3.org/2000/svg">
<path d="M0 15.5249C0 6.95072 6.95072 0 15.5249 0H35.4854C44.0596 0 51.0103 6.95072 51.0103 15.5249C51.0103 24.099 44.0596 31.0497 35.4854 31.0497H15.5249C6.95073 31.0497 0 24.099 0 15.5249Z" fill="url(#paint0_linear_344_853)"/>
<path d="M22.4053 7.90709C22.5459 8.04774 22.6249 8.23847 22.6249 8.43734C22.6249 8.63621 22.5459 8.82694 22.4053 8.96759L21.0606 10.3123H26.9376C28.1243 10.3123 29.2843 10.6642 30.271 11.3235C31.2577 11.9828 32.0267 12.9199 32.4809 14.0162C32.935 15.1126 33.0538 16.319 32.8223 17.4829C32.5908 18.6468 32.0193 19.7159 31.1802 20.555C30.3411 21.3941 29.272 21.9655 28.1081 22.1971C26.9442 22.4286 25.7378 22.3097 24.6415 21.8556C23.5451 21.4015 22.6081 20.6325 21.9488 19.6458C21.2895 18.6591 20.9376 17.499 20.9376 16.3123C20.9376 16.1134 21.0166 15.9227 21.1573 15.782C21.2979 15.6414 21.4887 15.5623 21.6876 15.5623C21.8865 15.5623 22.0773 15.6414 22.2179 15.782C22.3586 15.9227 22.4376 16.1134 22.4376 16.3123C22.4376 17.2024 22.7015 18.0724 23.196 18.8124C23.6904 19.5524 24.3932 20.1292 25.2155 20.4698C26.0378 20.8104 26.9426 20.8995 27.8155 20.7259C28.6884 20.5522 29.4902 20.1237 30.1196 19.4943C30.7489 18.865 31.1775 18.0632 31.3511 17.1902C31.5248 16.3173 31.4356 15.4125 31.095 14.5903C30.7544 13.768 30.1777 13.0652 29.4377 12.5707C28.6976 12.0763 27.8276 11.8123 26.9376 11.8123H21.0606L22.4053 13.1571C22.542 13.2985 22.6175 13.488 22.6158 13.6846C22.6141 13.8813 22.5353 14.0694 22.3962 14.2085C22.2571 14.3475 22.069 14.4264 21.8724 14.4281C21.6757 14.4298 21.4863 14.3542 21.3448 14.2176L18.7198 11.5926C18.5792 11.4519 18.5002 11.2612 18.5002 11.0623C18.5002 10.8635 18.5792 10.6727 18.7198 10.5321L21.3448 7.90709C21.4855 7.76649 21.6762 7.6875 21.8751 7.6875C22.074 7.6875 22.2647 7.76649 22.4053 7.90709Z" fill="white"/>
<defs>
<linearGradient id="paint0_linear_344_853" x1="25.5051" y1="0" x2="25.5051" y2="31.0497" gradientUnits="userSpaceOnUse">
<stop stop-color="#F19100"/>
<stop offset="1" stop-color="#E18800"/>
</linearGradient>
</defs>
</svg>
