<svg width="52" height="32" viewBox="0 0 52 32" fill="none" xmlns="http://www.w3.org/2000/svg">
<path d="M0 15.5249C0 6.95072 6.95072 0 15.5249 0H35.4854C44.0596 0 51.0103 6.95072 51.0103 15.5249C51.0103 24.099 44.0596 31.0497 35.4854 31.0497H15.5249C6.95073 31.0497 0 24.099 0 15.5249Z" fill="url(#paint0_linear_344_845)"/>
<path d="M25.9678 6.05078C24.1507 6.05078 22.3744 6.58962 20.8635 7.59915C19.3526 8.60869 18.175 10.0436 17.4796 11.7224C16.7843 13.4012 16.6023 15.2485 16.9568 17.0307C17.3113 18.8129 18.1863 20.4499 19.4712 21.7348C20.7561 23.0197 22.3932 23.8947 24.1754 24.2492C25.9576 24.6037 27.8049 24.4218 29.4837 23.7264C31.1625 23.031 32.5974 21.8535 33.6069 20.3426C34.6164 18.8317 35.1553 17.0554 35.1553 15.2383C35.1553 12.8016 34.1873 10.4647 32.4643 8.74174C30.7413 7.01875 28.4045 6.05078 25.9678 6.05078ZM29.9053 17.8633C29.9053 18.2114 29.767 18.5452 29.5209 18.7914C29.2747 19.0375 28.9409 19.1758 28.5928 19.1758H23.3428C22.9947 19.1758 22.6608 19.0375 22.4147 18.7914C22.1686 18.5452 22.0303 18.2114 22.0303 17.8633V12.6133C22.0303 12.2652 22.1686 11.9313 22.4147 11.6852C22.6608 11.4391 22.9947 11.3008 23.3428 11.3008H28.5928C28.9409 11.3008 29.2747 11.4391 29.5209 11.6852C29.767 11.9313 29.9053 12.2652 29.9053 12.6133V17.8633Z" fill="white"/>
<defs>
<linearGradient id="paint0_linear_344_845" x1="25.5051" y1="0" x2="25.5051" y2="31.0497" gradientUnits="userSpaceOnUse">
<stop stop-color="#E10000"/>
<stop offset="1" stop-color="#C30000"/>
</linearGradient>
</defs>
</svg>
