<svg width="23" height="19" viewBox="0 0 23 19" fill="none" xmlns="http://www.w3.org/2000/svg">
<path d="M10.7043 0.0998096C10.6222 0.110077 10.3758 0.166542 10.1653 0.217875C7.98369 0.767128 6.27946 2.65615 5.95093 4.88396C5.8688 5.46915 5.915 6.43419 6.06386 6.99372C6.41806 8.37968 7.26504 9.56032 8.47134 10.356C9.30292 10.9052 9.39532 11.0952 9.39532 12.2296V12.9893L8.95386 13.0047C8.36868 13.0304 8.36868 13.0304 8.36868 13.8979C8.36868 14.7397 8.37381 14.7449 8.9744 14.7449H9.39532V15.4635V16.1822L8.17875 16.1719L6.95704 16.1565L6.94164 16.0025C6.93651 15.9152 6.91598 15.7972 6.90571 15.7304C6.85951 15.5456 6.53099 15.212 6.32566 15.1555C6.21786 15.1299 5.69941 15.1042 5.16042 15.1042C4.3237 15.1042 4.15431 15.1196 3.97978 15.2017C3.62559 15.366 3.44079 15.6432 3.44079 16.0076V16.1822H3.1944C3.01473 16.1822 2.9172 16.2078 2.85561 16.2746C2.80941 16.3259 2.62974 16.7982 2.45008 17.3166L2.13182 18.2611L1.4799 18.2765C0.848519 18.2919 0.822853 18.2919 0.720188 18.4254C0.591858 18.5896 0.591858 18.6512 0.725322 18.8206L0.827986 18.9541H11.4999H22.1719L22.2746 18.8206C22.408 18.6512 22.408 18.5896 22.2797 18.4254C22.177 18.2919 22.1514 18.2919 21.52 18.2765L20.8681 18.2611L20.5498 17.3166C20.3701 16.7982 20.1905 16.3259 20.1443 16.2746C20.0724 16.1976 19.98 16.1822 19.6258 16.1822H19.1998V15.751C19.1998 15.3455 19.1895 15.3095 19.0663 15.212C18.9431 15.1145 18.861 15.1042 18.1372 15.1042C17.3672 15.1042 17.3415 15.1093 17.2235 15.2325C17.1105 15.3455 17.0951 15.3968 17.0951 15.7715V16.1873L16.9309 16.1719L16.7615 16.1565L16.7358 15.7099C16.7204 15.443 16.6845 15.2377 16.6434 15.1966C16.5972 15.1504 16.3406 15.1247 15.74 15.1145C14.6723 15.0939 14.6671 15.0939 14.6363 15.7407L14.6209 16.1822H14.1127H13.6046V15.4635V14.7449H14.0306C14.6261 14.7449 14.6312 14.7397 14.6312 13.8928C14.6312 13.5283 14.6107 13.2049 14.5901 13.1741C14.5131 13.056 14.3181 12.9996 13.969 12.9996H13.6046V12.2347C13.6046 11.09 13.697 10.9052 14.5388 10.3508C15.74 9.55519 16.5767 8.37968 16.9463 6.96805C17.0489 6.57279 17.0695 6.38286 17.0695 5.65908C17.0695 4.58624 16.9463 4.02672 16.5048 3.14381C15.7143 1.56791 14.2103 0.443735 12.4804 0.140877C12.0851 0.0690117 11.079 0.0484772 10.7043 0.0998096ZM12.5266 0.859526C14.5953 1.29585 16.1814 3.08221 16.3765 5.19196C16.5459 7.03478 15.6681 8.79034 14.0665 9.82725C13.5789 10.1455 13.3068 10.4176 13.1272 10.7769C12.9424 11.1414 12.8859 11.4904 12.8859 12.2809V12.9996H12.3726H11.8593V10.3816V7.75856L12.3059 8.09736C12.6908 8.38482 12.7781 8.43615 12.9372 8.42075C13.1015 8.40535 13.1477 8.36428 13.4865 7.86636C13.9433 7.19391 13.9947 7.08098 13.9228 6.91158C13.8509 6.75759 13.6456 6.67032 13.4865 6.73192C13.4198 6.75759 13.2452 6.96292 13.0964 7.19391C12.8551 7.55324 12.814 7.59943 12.737 7.54297C12.6908 7.51217 12.4239 7.31197 12.1416 7.10151C11.8079 6.84999 11.5872 6.72165 11.4999 6.72165C11.3819 6.72165 11.0841 6.92185 10.2372 7.56863C10.1961 7.5943 10.0883 7.4711 9.90351 7.19391C9.75464 6.96805 9.58011 6.75759 9.51338 6.73192C9.35425 6.67032 9.14892 6.75759 9.07706 6.91158C9.00519 7.08098 9.05653 7.19391 9.51338 7.86636C9.85217 8.36428 9.89837 8.40535 10.0626 8.42075C10.2218 8.43615 10.309 8.38482 10.694 8.09736L11.1406 7.75856V10.3816V12.9996H10.6273H10.114V12.3117C10.114 11.5366 10.0626 11.1978 9.88811 10.818C9.71871 10.4432 9.44152 10.1558 8.93333 9.82212C7.43443 8.83654 6.62338 7.38384 6.61312 5.66935C6.61312 5.08416 6.66958 4.70944 6.83898 4.17045C7.40877 2.38922 9.06166 1.01866 10.9353 0.782528C11.3511 0.726063 12.0749 0.761995 12.5266 0.859526ZM13.9639 13.8979V14.0775H11.4999H9.03599V13.8979V13.7182H11.4999H13.9639V13.8979ZM12.8859 14.9245V15.1042H11.9671C11.1509 15.1042 11.0379 15.1145 10.9302 15.1966C10.771 15.3301 10.771 15.597 10.9302 15.7304C11.0379 15.8126 11.1509 15.8228 11.9671 15.8228H12.8859V16.0025V16.1822H11.4999H10.114V15.4635V14.7449H11.4999H12.8859V14.9245ZM6.21273 15.9306C6.34106 16.1668 6.28972 16.1822 5.18608 16.1822H4.15944V16.0384C4.15944 15.9563 4.17484 15.8742 4.19537 15.8588C4.21077 15.8382 4.6625 15.8228 5.19122 15.8228C6.1152 15.8228 6.16139 15.828 6.21273 15.9306ZM16.0582 15.9871L16.0428 16.1565L15.6989 16.1719L15.3498 16.1873V16.0025V15.8228H15.7143H16.0736L16.0582 15.9871ZM18.5222 15.9871L18.5068 16.1565L18.1628 16.1719L17.8138 16.1873V16.0025V15.8228H18.1782H18.5376L18.5222 15.9871ZM19.8722 17.5014C19.9903 17.8659 20.0981 18.1893 20.1135 18.2201C20.1289 18.2714 19.9184 18.2868 19.1536 18.2868H18.1731V17.8761C18.1731 17.5014 18.1577 17.4501 18.0448 17.3371C17.8857 17.1729 17.7419 17.1729 17.5828 17.3371C17.4699 17.4501 17.4545 17.5014 17.4545 17.8761V18.2919L17.1105 18.2765L16.7615 18.2611L16.7358 17.8094C16.7153 17.4347 16.6896 17.3423 16.6126 17.2807C16.4894 17.1934 16.4227 17.1883 16.2482 17.2704C16.0942 17.3371 16.0736 17.4141 16.0582 17.9018L16.0428 18.2611L15.6989 18.2765L15.3498 18.2919V17.8556C15.3498 17.4501 15.3396 17.4141 15.2164 17.3166C15.047 17.1831 14.9341 17.1831 14.7801 17.3063C14.6723 17.3936 14.6569 17.4552 14.6363 17.8453L14.6209 18.2868H14.2924H13.9639V17.8761C13.9639 17.5014 13.9485 17.4501 13.8355 17.3371C13.7688 17.2653 13.661 17.2088 13.6046 17.2088C13.5481 17.2088 13.4403 17.2653 13.3736 17.3371C13.2606 17.4501 13.2452 17.5014 13.2452 17.8761V18.2919L12.9013 18.2765L12.5522 18.2611L12.5266 17.8094C12.506 17.4347 12.4804 17.3423 12.4034 17.2807C12.2648 17.1831 12.1519 17.1883 11.9927 17.3166C11.8695 17.4141 11.8593 17.4501 11.8593 17.8556V18.2868H7.36257C3.78472 18.2868 2.871 18.2714 2.8864 18.2201C2.9018 18.1893 3.0096 17.8659 3.12767 17.5014L3.34839 16.8495H11.4999H19.6515L19.8722 17.5014Z" fill="#023059"/>
<path d="M3.10728 0.520764C2.67095 0.726092 2.41429 1.13675 2.41429 1.6398C2.41429 2.0094 2.54262 2.29172 2.79928 2.52272C3.15347 2.83071 3.55386 2.91284 4.02612 2.77424C4.30331 2.69211 4.68317 2.31225 4.7653 2.03506C4.84743 1.75273 4.8423 1.38314 4.75504 1.17268C4.65237 0.926287 4.37005 0.623428 4.13392 0.520764C3.86186 0.392433 3.37934 0.397567 3.10728 0.520764ZM3.88239 1.18808C4.40084 1.50634 4.03125 2.30199 3.45633 2.11206C2.90195 1.9324 3.03028 1.11108 3.6206 1.09568C3.67706 1.09055 3.79513 1.13675 3.88239 1.18808Z" fill="#023059"/>
<path d="M18.6456 3.63653C18.4762 3.75459 18.4916 4.02152 18.6918 4.24738L18.8509 4.42704L18.6918 4.60671C18.4916 4.83257 18.4762 5.0995 18.6456 5.21756C18.8201 5.34076 18.9741 5.31509 19.1846 5.12516L19.3796 4.95063L19.5798 5.12516C19.8211 5.33562 19.9802 5.34589 20.1548 5.16623C20.319 5.0071 20.2882 4.83257 20.0572 4.59131L19.8981 4.42704L20.0572 4.25765C20.278 4.03179 20.3139 3.86752 20.1753 3.69299C20.0213 3.49793 19.8314 3.51333 19.5798 3.72893L19.3796 3.90346L19.1846 3.72893C18.9741 3.539 18.8201 3.51333 18.6456 3.63653Z" fill="#023059"/>
<path d="M20.9299 7.49679C20.7246 7.72266 20.894 8.12305 21.1917 8.12305C21.4997 8.12305 21.6742 7.72266 21.4586 7.50706C21.3252 7.3736 21.0428 7.3736 20.9299 7.49679Z" fill="#023059"/>
</svg>
