<svg width="41" height="42" viewBox="0 0 41 42" fill="none" xmlns="http://www.w3.org/2000/svg">
<g opacity="0.15">
<circle cx="20.5" cy="20.9028" r="20.5" fill="#F4F4F4"/>
<circle cx="20.5" cy="20.9028" r="20.5" fill="black" fill-opacity="0.2"/>
</g>
<path d="M23.0159 9.70676C22.731 10.4285 22.9589 11.4922 23.3958 11.4922C23.5857 11.4922 23.6617 11.2073 23.6617 10.4475C23.6617 9.68776 23.5857 9.40286 23.3958 9.40286C23.2438 9.40286 23.0729 9.53581 23.0159 9.70676Z" fill="#023059"/>
<path d="M17.9635 11.0553C17.9635 11.5682 18.6853 12.6318 19.0082 12.6318C19.4071 12.6318 19.3691 12.3469 18.8752 11.4732C18.4384 10.6945 17.9635 10.4855 17.9635 11.0553Z" fill="#023059"/>
<path d="M27.8404 11.4922C27.3845 12.3849 27.3655 12.6318 27.7454 12.6318C28.0683 12.6318 28.7901 11.5682 28.7901 11.0553C28.7901 10.4665 28.2393 10.7134 27.8404 11.4922Z" fill="#023059"/>
<path d="M21.3634 13.0689C19.654 13.7147 18.4194 14.8733 17.6406 16.5638C17.2798 17.3426 17.1848 17.8744 17.1848 19.033C17.1848 20.4196 17.2228 20.6095 18.0585 22.186C19.0272 24.0474 19.483 25.6809 19.483 27.2764C19.483 28.1501 19.559 28.397 19.9579 28.7769C20.2238 29.0428 20.4327 29.4417 20.4327 29.7266C20.4327 30.0115 20.6417 30.4104 20.9076 30.6763C21.1735 30.9232 21.3824 31.3031 21.3824 31.531C21.3824 31.7589 21.5534 32.1768 21.7813 32.4617C22.1232 32.8986 22.2942 32.9556 23.3768 32.9556C24.4595 32.9556 24.6304 32.8986 24.9723 32.4617C25.2002 32.1768 25.3712 31.7779 25.3712 31.588C25.3712 31.3791 25.5801 30.9612 25.846 30.6383C26.1119 30.3344 26.3209 29.8975 26.3209 29.6886C26.3209 29.4797 26.5298 29.0618 26.7957 28.7389C27.1566 28.321 27.2706 27.9602 27.2706 27.2764C27.2706 25.6809 27.6314 24.3703 28.5432 22.5089C29.4359 20.7425 29.4549 20.6665 29.4549 18.9001C29.4549 17.3805 29.3789 16.9627 29.018 16.2789C28.3912 15.0823 27.4225 14.1136 26.2829 13.4868C25.4471 13.0309 25.0103 12.917 23.6617 12.879C22.636 12.841 21.8003 12.917 21.3634 13.0689ZM25.5611 13.9806C27.5745 14.8923 28.7901 16.7727 28.7901 19.014C28.7901 20.2296 28.7141 20.4956 27.8784 22.148C27.3085 23.2497 26.8527 24.4463 26.7007 25.225L26.4728 26.4976H23.3578C21.6484 26.4976 20.2428 26.4406 20.2428 26.3457C20.2238 25.472 19.54 23.3826 18.8373 22.0531C18.0395 20.5335 17.9635 20.2866 17.9635 19.033C17.9635 15.861 20.2428 13.5818 23.3768 13.5818C24.3075 13.5818 24.9723 13.7147 25.5611 13.9806ZM26.4728 27.7702L26.4158 28.3021H23.3768H20.3378L20.2808 27.7702L20.2238 27.2574H23.3768H26.5298L26.4728 27.7702ZM25.5231 29.6696L25.4661 30.2014H23.3768H21.2875L21.2305 29.6696L21.1735 29.1568H23.3768H25.5801L25.5231 29.6696ZM24.6114 31.3221C24.6114 32.0439 24.3835 32.1958 23.3768 32.1958C22.636 32.1958 22.3511 32.1198 22.2562 31.8919C21.9713 31.1511 22.1042 31.0562 23.3768 31.0562C24.3075 31.0562 24.6114 31.1132 24.6114 31.3221Z" fill="#023059"/>
<path d="M22.1042 15.8037C21.7054 16.2785 20.2048 20.1913 20.2808 20.5712C20.3188 20.8181 20.5847 20.9131 21.4394 20.951C22.1232 20.989 22.5221 21.084 22.5221 21.236C22.5221 21.3689 22.4271 22.1287 22.2942 22.9454C22.1232 24.0471 22.1232 24.4649 22.2942 24.6359C22.4461 24.7878 22.5791 24.7878 22.788 24.6169C23.3958 24.104 26.5298 19.6025 26.4728 19.3176C26.4348 19.1086 26.1879 18.9757 25.789 18.9377C25.4662 18.8997 25.1812 18.8427 25.1812 18.8047C25.1812 18.7477 25.4662 18.1589 25.789 17.4752C26.6438 15.7467 26.5298 15.5948 24.1936 15.5188C22.674 15.4808 22.3511 15.5188 22.1042 15.8037ZM24.8014 17.7601C24.3835 18.6148 24.0796 19.3745 24.1366 19.4695C24.2126 19.5835 24.5544 19.6595 24.9153 19.6595H25.5611L24.3835 21.2739C23.7377 22.1667 23.1869 22.8504 23.1489 22.8124C23.0919 22.7745 23.1489 22.2426 23.2629 21.6538C23.3768 21.046 23.4148 20.4952 23.3578 20.4002C23.3008 20.3052 22.769 20.2293 22.1422 20.2293H21.0406L21.8193 18.2349L22.6171 16.2405H24.0986H25.5611L24.8014 17.7601Z" fill="#023059"/>
<path d="M14.1648 14.8162C14.1648 15.1391 15.2284 15.8608 15.7413 15.8608C16.3301 15.8608 16.0832 15.31 15.3044 14.9111C14.4117 14.4553 14.1648 14.4363 14.1648 14.8162Z" fill="#023059"/>
<path d="M31.3163 14.9491C30.6325 15.348 30.4805 15.8608 31.0314 15.8608C31.5252 15.8608 32.5889 15.1391 32.5889 14.8162C32.5889 14.4363 32.057 14.4743 31.3163 14.9491Z" fill="#023059"/>
<path d="M12.9302 23.4583C12.7592 23.9712 12.1514 24.2751 11.5436 24.1231C10.8598 23.9902 9.87213 24.9209 10.0431 25.5477C10.195 26.1365 9.89112 26.8203 9.43527 26.9722C8.88444 27.1432 8.84645 28.8716 9.37828 29.0615C9.85313 29.1945 10.138 29.8783 10.0431 30.5811C9.92911 31.3598 10.6889 32.1006 11.4296 31.9486C12.0754 31.8347 12.7972 32.1386 12.9302 32.6134C13.1201 33.1452 14.8485 33.1073 15.0195 32.5564C15.1714 32.1006 15.8552 31.7967 16.444 31.9486C17.0708 32.1196 18.0015 31.1319 17.8686 30.4481C17.7166 29.8403 18.0205 29.2325 18.5334 29.0615C18.8373 28.9666 18.9132 28.7766 18.9132 28.1688C18.9132 27.561 18.7993 27.2951 18.3244 26.8583C17.8116 26.3834 17.7546 26.2125 17.8496 25.6996C17.9445 25.2058 17.8686 24.9968 17.4507 24.56C17.0328 24.1041 16.8429 24.0472 16.3111 24.1421C15.7792 24.2371 15.6083 24.1801 15.1334 23.6673C14.6966 23.1924 14.4307 23.0785 13.8229 23.0785C13.2151 23.0785 13.0251 23.1544 12.9302 23.4583ZM14.4497 24.1801C14.5636 24.56 15.8552 25.0918 16.2731 24.9399C16.634 24.8069 17.2038 25.3387 17.0708 25.6806C16.8999 26.1175 17.4127 27.4281 17.8116 27.542C18.2295 27.694 18.2674 28.3588 17.8686 28.5297C17.4507 28.6817 16.9759 29.6694 17.0328 30.2582C17.1088 30.9609 16.8809 31.2648 16.387 31.1509C15.8742 31.0179 14.5636 31.5308 14.4117 31.9106C14.2787 32.2905 13.6139 32.2715 13.462 31.9106C13.329 31.5118 12.0754 31.0179 11.5816 31.1319C11.0877 31.2648 10.7269 30.885 10.8598 30.3721C10.9738 29.8973 10.4609 28.6627 10.0811 28.5297C9.72018 28.3778 9.70118 27.713 10.0811 27.58C10.4609 27.4281 10.9738 26.1175 10.8408 25.6047C10.7269 25.1108 11.0308 24.8829 11.7335 24.9589C12.3223 25.0158 13.31 24.541 13.462 24.1231C13.6329 23.7243 14.2977 23.7622 14.4497 24.1801Z" fill="#023059"/>
<path d="M12.8352 25.187C11.1257 25.9088 10.385 28.0931 11.3727 29.5556C12.0374 30.5433 12.9302 31.0562 13.9748 31.0562C16.8619 31.0562 18.0585 27.3713 15.7413 25.6049C15.0195 25.0541 13.6329 24.8451 12.8352 25.187ZM14.9435 26.0228C15.6083 26.3647 16.2541 27.3523 16.2541 27.9791C16.2541 29.1947 15.1714 30.2964 13.9748 30.2964C11.6196 30.2964 10.8218 27.0674 12.9112 26.0418C13.6709 25.6619 14.2407 25.6619 14.9435 26.0228Z" fill="#023059"/>
<path d="M14.2217 27.561C13.7659 27.9409 13.386 28.1309 13.31 28.0169C13.1391 27.732 12.4553 27.789 12.4553 28.0739C12.4553 28.2258 12.6642 28.5297 12.9112 28.7577C13.462 29.2705 13.7089 29.1755 14.7916 28.0549C15.3614 27.4661 15.4563 27.2761 15.2664 27.1052C15.0765 26.9532 14.8295 27.0672 14.2217 27.561Z" fill="#023059"/>
</svg>
