<svg width="41" height="41" viewBox="0 0 41 41" fill="none" xmlns="http://www.w3.org/2000/svg">
<g opacity="0.15">
<circle cx="20.5" cy="20.5" r="20.5" fill="#F4F4F4"/>
<circle cx="20.5" cy="20.5" r="20.5" fill="black" fill-opacity="0.2"/>
</g>
<path d="M26.9813 10.7349H17.7726V10.7119C17.7726 10.3193 17.4532 10 17.0607 10H15.5909C15.1984 10 14.879 10.3193 14.879 10.7119V10.7349H13.0189C12.4237 10.7349 11.9396 11.219 11.9396 11.8142V30.9207C11.9396 31.5158 12.4237 32 13.0189 32H26.9813C27.5765 32 28.0607 31.5158 28.0607 30.9207V11.8142C28.0607 11.2191 27.5765 10.7349 26.9813 10.7349ZM15.568 10.7119C15.568 10.6992 15.5783 10.689 15.5909 10.689H17.0607C17.0734 10.689 17.0836 10.6992 17.0836 10.7119V14.11L16.5169 13.7321C16.459 13.6936 16.3924 13.6743 16.3258 13.6743C16.2592 13.6743 16.1926 13.6936 16.1347 13.7321L15.5679 14.11V10.7119H15.568ZM13.4093 31.3111H13.0189C12.8036 31.3111 12.6285 31.1359 12.6285 30.9207V11.8142C12.6285 11.5989 12.8036 11.4238 13.0189 11.4238H13.4093V31.3111ZM27.3718 30.9207H27.3717C27.3717 31.1359 27.1966 31.3111 26.9813 31.3111H14.0982V11.4238H14.879V14.7537C14.879 14.8807 14.9489 14.9975 15.061 15.0574C15.173 15.1174 15.3089 15.1108 15.4145 15.0403L16.3258 14.4328L17.237 15.0403C17.2946 15.0787 17.3613 15.0982 17.4281 15.0982C17.4839 15.0982 17.5397 15.0847 17.5907 15.0574C17.7027 14.9975 17.7726 14.8807 17.7726 14.7537V11.4238H26.9814C27.1967 11.4238 27.3718 11.599 27.3718 11.8142L27.3718 30.9207Z" fill="#023059"/>
<path d="M25.1441 15.8792H20.0001C19.6075 15.8792 19.2882 16.1985 19.2882 16.5911V19.9209H15.9583C15.5657 19.9209 15.2464 20.2403 15.2464 20.6328V25.7769C15.2464 26.1694 15.5657 26.4888 15.9583 26.4888H25.1441C25.5367 26.4888 25.856 26.1694 25.856 25.7769V16.5911C25.856 16.1985 25.5367 15.8792 25.1441 15.8792ZM25.1671 25.7769C25.1671 25.7895 25.1568 25.7998 25.1442 25.7998H15.9583C15.9456 25.7998 15.9354 25.7895 15.9354 25.7769V20.6328C15.9354 20.6202 15.9456 20.6099 15.9583 20.6099H19.6326C19.8228 20.6099 19.9771 20.4557 19.9771 20.2654V16.5911C19.9771 16.5784 19.9874 16.5682 20 16.5682H25.1441C25.1568 16.5682 25.167 16.5784 25.167 16.5911V25.7769H25.1671Z" fill="#023059"/>
<path d="M22.5721 19.5535C22.3819 19.5535 22.2276 19.7077 22.2276 19.8979V22.8604H19.6681L19.8238 22.7566C19.9821 22.6511 20.0249 22.4372 19.9193 22.2789C19.8137 22.1206 19.5999 22.0778 19.4416 22.1834L18.3394 22.9182C18.2436 22.9821 18.186 23.0896 18.186 23.2048C18.186 23.32 18.2435 23.4276 18.3394 23.4914L19.4416 24.2263C19.5004 24.2655 19.5668 24.2842 19.6324 24.2842C19.7437 24.2842 19.8529 24.2303 19.9193 24.1308C20.0248 23.9725 19.9821 23.7586 19.8238 23.6531L19.6681 23.5493H22.5721C22.7623 23.5493 22.9166 23.395 22.9166 23.2048V19.8979C22.9166 19.7077 22.7623 19.5535 22.5721 19.5535Z" fill="#023059"/>
</svg>
