<svg width="41" height="41" viewBox="0 0 41 41" fill="none" xmlns="http://www.w3.org/2000/svg">
<g opacity="0.15">
<circle cx="20.5" cy="20.5" r="20.5" fill="#F4F4F4"/>
<circle cx="20.5" cy="20.5" r="20.5" fill="black" fill-opacity="0.2"/>
</g>
<mask id="path-2-inside-1_394_126" fill="white">
<path d="M11.4258 13.2227L10.9766 13.6539V19.7813V25.8906H10.5273C10.1141 25.8906 10.0781 25.9625 10.0781 26.6813C10.0781 27.3281 10.168 27.5438 10.5453 27.8492C11.0125 28.2266 11.1922 28.2266 20.5 28.2266C29.8078 28.2266 29.9875 28.2266 30.4547 27.8492C30.832 27.5438 30.9219 27.3281 30.9219 26.6813C30.9219 25.9625 30.8859 25.8906 30.4727 25.8906H30.0234V19.6195V13.3305L29.6281 13.0609C29.2687 12.8094 28.1008 12.7734 20.5359 12.7734H11.857L11.4258 13.2227ZM29.5562 13.6C29.6102 13.7617 29.6641 16.5828 29.6641 19.8891V25.8906H20.5H11.3359V19.943C11.3359 16.2055 11.4078 13.8875 11.5156 13.6539C11.6953 13.3305 12.0008 13.3125 20.5719 13.3125C28.4961 13.3125 29.4664 13.3484 29.5562 13.6ZM30.5625 26.7531C30.5625 27.0227 30.4727 27.3461 30.3469 27.4719C30.0414 27.7773 10.9586 27.7773 10.6531 27.4719C10.5273 27.3461 10.4375 27.0227 10.4375 26.7531V26.25H20.5H30.5625V26.7531Z"/>
</mask>
<path d="M11.4258 13.2227L10.9766 13.6539V19.7813V25.8906H10.5273C10.1141 25.8906 10.0781 25.9625 10.0781 26.6813C10.0781 27.3281 10.168 27.5438 10.5453 27.8492C11.0125 28.2266 11.1922 28.2266 20.5 28.2266C29.8078 28.2266 29.9875 28.2266 30.4547 27.8492C30.832 27.5438 30.9219 27.3281 30.9219 26.6813C30.9219 25.9625 30.8859 25.8906 30.4727 25.8906H30.0234V19.6195V13.3305L29.6281 13.0609C29.2687 12.8094 28.1008 12.7734 20.5359 12.7734H11.857L11.4258 13.2227ZM29.5562 13.6C29.6102 13.7617 29.6641 16.5828 29.6641 19.8891V25.8906H20.5H11.3359V19.943C11.3359 16.2055 11.4078 13.8875 11.5156 13.6539C11.6953 13.3305 12.0008 13.3125 20.5719 13.3125C28.4961 13.3125 29.4664 13.3484 29.5562 13.6ZM30.5625 26.7531C30.5625 27.0227 30.4727 27.3461 30.3469 27.4719C30.0414 27.7773 10.9586 27.7773 10.6531 27.4719C10.5273 27.3461 10.4375 27.0227 10.4375 26.7531V26.25H20.5H30.5625V26.7531Z" fill="#023059"/>
<path d="M11.4258 13.2227L12.1472 13.9152L12.133 13.9299L12.1183 13.944L11.4258 13.2227ZM10.9766 13.6539H9.97656V13.2277L10.284 12.9325L10.9766 13.6539ZM10.9766 25.8906H11.9766V26.8906H10.9766V25.8906ZM10.5453 27.8492L9.91697 28.6272L9.91611 28.6265L10.5453 27.8492ZM30.4547 27.8492L31.0839 28.6265L31.083 28.6272L30.4547 27.8492ZM30.0234 25.8906V26.8906H29.0234V25.8906H30.0234ZM30.0234 13.3305L30.5868 12.5042L31.0234 12.802V13.3305H30.0234ZM29.6281 13.0609L29.0647 13.8872L29.0547 13.8802L29.6281 13.0609ZM11.857 12.7734L11.1356 12.0809L11.4308 11.7734H11.857V12.7734ZM29.5562 13.6L30.498 13.2637L30.5016 13.2737L30.5049 13.2838L29.5562 13.6ZM29.6641 25.8906H30.6641V26.8906H29.6641V25.8906ZM11.3359 25.8906V26.8906H10.3359V25.8906H11.3359ZM11.5156 13.6539L10.6077 13.2348L10.6233 13.2009L10.6415 13.1683L11.5156 13.6539ZM10.4375 26.25H9.4375V25.25H10.4375V26.25ZM30.5625 26.25V25.25H31.5625V26.25H30.5625ZM12.1183 13.944L11.6691 14.3753L10.284 12.9325L10.7332 12.5013L12.1183 13.944ZM11.9766 13.6539V19.7813H9.97656V13.6539H11.9766ZM11.9766 19.7813V25.8906H9.97656V19.7813H11.9766ZM10.9766 26.8906H10.5273V24.8906H10.9766V26.8906ZM10.5273 26.8906C10.5084 26.8906 10.4947 26.8908 10.4847 26.8911C10.4748 26.8914 10.4711 26.8918 10.4722 26.8917C10.4732 26.8916 10.482 26.8909 10.4964 26.8885C10.5108 26.8861 10.534 26.8815 10.5633 26.8729C10.6235 26.8554 10.713 26.8198 10.8066 26.749C10.9032 26.676 10.9729 26.5891 11.0193 26.5067C11.0622 26.4305 11.0786 26.3697 11.084 26.3471C11.0894 26.3246 11.0884 26.32 11.0861 26.3453C11.0809 26.402 11.0781 26.499 11.0781 26.6813H9.07812C9.07812 26.5041 9.07985 26.3226 9.09433 26.1637C9.10727 26.0217 9.13869 25.7706 9.27618 25.5261C9.45111 25.2152 9.72428 25.0345 10.0023 24.9532C10.2156 24.8909 10.4253 24.8906 10.5273 24.8906V26.8906ZM11.0781 26.6813C11.0781 26.8241 11.0834 26.9131 11.0905 26.9711C11.0973 27.0257 11.1036 27.034 11.0979 27.0198C11.095 27.0127 11.0909 27.0043 11.0859 26.9961C11.081 26.9881 11.0779 26.9846 11.0792 26.986C11.0839 26.9916 11.1067 27.0171 11.1745 27.072L9.91611 28.6265C9.66899 28.4264 9.40363 28.1668 9.24257 27.7667C9.09657 27.4041 9.07812 27.0232 9.07812 26.6813H11.0781ZM11.1736 27.0713C11.2136 27.1035 11.178 27.0847 11.2156 27.0934C11.3403 27.1224 11.611 27.1565 12.2446 27.1801C13.4873 27.2264 15.8324 27.2266 20.5 27.2266V29.2266C15.8598 29.2266 13.4611 29.2268 12.1702 29.1787C11.537 29.1551 11.0935 29.1184 10.7622 29.0413C10.3438 28.944 10.1106 28.7836 9.91698 28.6272L11.1736 27.0713ZM20.5 27.2266C25.1676 27.2266 27.5127 27.2264 28.7554 27.1801C29.389 27.1565 29.6597 27.1224 29.7844 27.0934C29.822 27.0847 29.7864 27.1035 29.8263 27.0713L31.083 28.6272C30.8894 28.7836 30.6562 28.944 30.2378 29.0413C29.9065 29.1184 29.463 29.1551 28.8298 29.1787C27.5389 29.2268 25.1402 29.2266 20.5 29.2266V27.2266ZM29.8255 27.072C29.8933 27.0171 29.9161 26.9916 29.9208 26.986C29.9221 26.9846 29.919 26.9881 29.9141 26.9961C29.9091 27.0043 29.905 27.0127 29.9021 27.0198C29.8964 27.034 29.9027 27.0257 29.9095 26.9711C29.9166 26.9131 29.9219 26.8241 29.9219 26.6813H31.9219C31.9219 27.0232 31.9034 27.4041 31.7574 27.7667C31.5964 28.1668 31.331 28.4264 31.0839 28.6265L29.8255 27.072ZM29.9219 26.6813C29.9219 26.499 29.9191 26.402 29.9139 26.3453C29.9116 26.32 29.9106 26.3246 29.916 26.3471C29.9214 26.3697 29.9378 26.4305 29.9807 26.5067C30.0271 26.5891 30.0968 26.676 30.1934 26.749C30.287 26.8198 30.3765 26.8554 30.4367 26.8729C30.466 26.8815 30.4892 26.8861 30.5036 26.8885C30.518 26.8909 30.5268 26.8916 30.5278 26.8917C30.5289 26.8918 30.5252 26.8914 30.5153 26.8911C30.5053 26.8908 30.4916 26.8906 30.4727 26.8906V24.8906C30.5747 24.8906 30.7844 24.8909 30.9977 24.9532C31.2757 25.0345 31.5489 25.2152 31.7238 25.5261C31.8613 25.7706 31.8927 26.0217 31.9057 26.1637C31.9202 26.3226 31.9219 26.5041 31.9219 26.6813H29.9219ZM30.4727 26.8906H30.0234V24.8906H30.4727V26.8906ZM29.0234 25.8906V19.6195H31.0234V25.8906H29.0234ZM29.0234 19.6195V13.3305H31.0234V19.6195H29.0234ZM29.4601 14.1567L29.0648 13.8872L30.1915 12.2347L30.5868 12.5042L29.4601 14.1567ZM29.0547 13.8802C29.1654 13.9577 29.2207 13.9336 28.9817 13.9003C28.7597 13.8694 28.3887 13.8424 27.7526 13.8224C26.4894 13.7825 24.3245 13.7734 20.5359 13.7734V11.7734C24.3122 11.7734 26.5137 11.7823 27.8156 11.8233C28.462 11.8437 28.9231 11.8729 29.2576 11.9194C29.5751 11.9637 29.9112 12.0384 30.2016 12.2417L29.0547 13.8802ZM20.5359 13.7734H11.857V11.7734H20.5359V13.7734ZM12.5784 13.466L12.1472 13.9152L10.7044 12.5301L11.1356 12.0809L12.5784 13.466ZM30.5049 13.2838C30.5473 13.4109 30.5587 13.537 30.5603 13.5511C30.5659 13.602 30.5704 13.6583 30.5741 13.7143C30.5817 13.8278 30.5887 13.9755 30.5951 14.1487C30.6081 14.497 30.6201 14.9754 30.6302 15.5476C30.6506 16.6933 30.6641 18.2312 30.6641 19.8891H28.6641C28.6641 18.2407 28.6506 16.7149 28.6305 15.5831C28.6205 15.0165 28.6088 14.5527 28.5965 14.2232C28.5904 14.0575 28.5843 13.9324 28.5786 13.8479C28.5757 13.8047 28.5735 13.7807 28.5724 13.7709C28.5672 13.7242 28.5719 13.8093 28.6076 13.9162L30.5049 13.2838ZM30.6641 19.8891V25.8906H28.6641V19.8891H30.6641ZM29.6641 26.8906H20.5V24.8906H29.6641V26.8906ZM20.5 26.8906H11.3359V24.8906H20.5V26.8906ZM10.3359 25.8906V19.943H12.3359V25.8906H10.3359ZM10.3359 19.943C10.3359 18.0694 10.3539 16.5448 10.3858 15.4553C10.4017 14.9119 10.4212 14.4676 10.4446 14.1387C10.4562 13.9756 10.4695 13.8287 10.4856 13.707C10.4945 13.6391 10.5202 13.4244 10.6077 13.2348L12.4236 14.073C12.4841 13.9418 12.4839 13.8507 12.4683 13.9688C12.4598 14.0332 12.4499 14.1349 12.4396 14.2803C12.4191 14.5686 12.4005 14.9812 12.3849 15.5137C12.3539 16.5759 12.3359 18.079 12.3359 19.943H10.3359ZM10.6415 13.1683C10.6971 13.0681 10.8047 12.8951 11.0081 12.7439C11.1945 12.6053 11.3929 12.5356 11.5576 12.4942C11.8603 12.4182 12.2824 12.3848 12.8586 12.3627C14.0534 12.3168 16.2984 12.3125 20.5719 12.3125V14.3125C16.2742 14.3125 14.081 14.3172 12.9353 14.3612C12.3414 14.384 12.1177 14.4157 12.0447 14.434C12.0215 14.4398 12.0996 14.4246 12.2015 14.3488C12.3203 14.2605 12.3791 14.1588 12.3898 14.1395L10.6415 13.1683ZM20.5719 12.3125C24.527 12.3125 26.7699 12.3214 28.0344 12.3624C28.6551 12.3826 29.0945 12.4117 29.3968 12.4632C29.5429 12.488 29.7322 12.5297 29.9132 12.6193C30.1209 12.7221 30.375 12.9192 30.498 13.2637L28.6145 13.9363C28.7151 14.2179 28.9191 14.3588 29.0257 14.4116C29.1054 14.4511 29.1423 14.4486 29.0609 14.4347C28.9084 14.4088 28.5932 14.3817 27.9695 14.3614C26.7453 14.3216 24.541 14.3125 20.5719 14.3125V12.3125ZM31.5625 26.7531C31.5625 26.9889 31.5248 27.2318 31.4615 27.4477C31.4077 27.6311 31.2953 27.9377 31.054 28.179L29.6398 26.7648C29.602 26.8025 29.5777 26.8353 29.5642 26.8553C29.5502 26.8759 29.5424 26.8908 29.5392 26.8972C29.5335 26.9087 29.5362 26.9055 29.5422 26.8851C29.5478 26.8662 29.5533 26.8418 29.5573 26.815C29.5613 26.7881 29.5625 26.7665 29.5625 26.7531H31.5625ZM31.054 28.179C30.8709 28.362 30.6626 28.4255 30.6367 28.4342C30.5661 28.4578 30.5017 28.472 30.4591 28.4805C30.3707 28.498 30.274 28.5104 30.1848 28.5199C30.0009 28.5395 29.7587 28.5562 29.4773 28.5708C28.9101 28.6002 28.1262 28.6243 27.2046 28.6435C25.3585 28.6819 22.9275 28.701 20.5 28.701C18.0725 28.701 15.6415 28.6819 13.7954 28.6435C12.8738 28.6243 12.0899 28.6002 11.5227 28.5708C11.2413 28.5562 10.9991 28.5395 10.8152 28.5199C10.726 28.5104 10.6293 28.498 10.5409 28.4805C10.4983 28.472 10.4339 28.4578 10.3633 28.4342C10.3374 28.4255 10.1291 28.362 9.94602 28.179L11.3602 26.7648C11.2576 26.6621 11.1573 26.6079 11.1138 26.586C11.0625 26.5601 11.0206 26.5451 10.9988 26.5378C10.9748 26.5298 10.9567 26.525 10.9475 26.5227C10.9377 26.5202 10.9316 26.519 10.9304 26.5188C10.9286 26.5184 10.9356 26.5198 10.9542 26.5224C10.9721 26.5249 10.9961 26.5279 11.0273 26.5312C11.1567 26.545 11.3561 26.5594 11.6264 26.5735C12.1624 26.6013 12.9218 26.6249 13.837 26.6439C15.6644 26.6819 18.0805 26.701 20.5 26.701C22.9195 26.701 25.3356 26.6819 27.163 26.6439C28.0782 26.6249 28.8376 26.6013 29.3736 26.5735C29.6439 26.5594 29.8433 26.545 29.9727 26.5312C30.0039 26.5279 30.0279 26.5249 30.0458 26.5224C30.0644 26.5198 30.0714 26.5184 30.0696 26.5188C30.0684 26.519 30.0623 26.5202 30.0525 26.5227C30.0433 26.525 30.0252 26.5298 30.0012 26.5378C29.9794 26.5451 29.9375 26.5601 29.8862 26.586C29.8427 26.6079 29.7424 26.6621 29.6398 26.7648L31.054 28.179ZM9.94602 28.179C9.70473 27.9377 9.59227 27.6311 9.53852 27.4477C9.47524 27.2318 9.4375 26.9889 9.4375 26.7531H11.4375C11.4375 26.7665 11.4387 26.7881 11.4427 26.815C11.4467 26.8418 11.4522 26.8662 11.4578 26.8851C11.4637 26.9055 11.4665 26.9087 11.4608 26.8972C11.4576 26.8908 11.4498 26.8759 11.4358 26.8553C11.4223 26.8353 11.398 26.8025 11.3602 26.7648L9.94602 28.179ZM9.4375 26.7531V26.25H11.4375V26.7531H9.4375ZM10.4375 25.25H20.5V27.25H10.4375V25.25ZM20.5 25.25H30.5625V27.25H20.5V25.25ZM31.5625 26.25V26.7531H29.5625V26.25H31.5625Z" fill="#023059" mask="url(#path-2-inside-1_394_126)"/>
<mask id="path-4-inside-2_394_126" fill="white">
<path d="M12.3961 14.6961C12.2883 14.9836 12.2344 16.9961 12.2704 19.907C12.3243 23.8781 12.3602 24.6687 12.5938 24.8125C13.0251 25.082 28.2805 25.0461 28.5501 24.7765C28.7118 24.6148 28.7657 23.2312 28.7657 19.6734C28.7657 16.9781 28.7118 14.6601 28.6579 14.4984C28.568 14.2469 27.6696 14.2109 20.5719 14.2109H12.5938L12.3961 14.6961ZM28.3165 19.6015V24.543H20.5899H12.8633L12.8094 19.5476L12.7735 14.5703L20.536 14.6062L28.3165 14.6601V19.6015Z"/>
</mask>
<path d="M12.3961 14.6961C12.2883 14.9836 12.2344 16.9961 12.2704 19.907C12.3243 23.8781 12.3602 24.6687 12.5938 24.8125C13.0251 25.082 28.2805 25.0461 28.5501 24.7765C28.7118 24.6148 28.7657 23.2312 28.7657 19.6734C28.7657 16.9781 28.7118 14.6601 28.6579 14.4984C28.568 14.2469 27.6696 14.2109 20.5719 14.2109H12.5938L12.3961 14.6961ZM28.3165 19.6015V24.543H20.5899H12.8633L12.8094 19.5476L12.7735 14.5703L20.536 14.6062L28.3165 14.6601V19.6015Z" fill="#023059"/>
<path d="M12.3961 14.6961L11.4598 14.345L11.4648 14.3318L11.4701 14.3188L12.3961 14.6961ZM12.2704 19.907L11.2705 19.9206L11.2704 19.9194L12.2704 19.907ZM12.5938 24.8125L13.1179 23.9608L13.1238 23.9645L12.5938 24.8125ZM28.6579 14.4984L29.5996 14.1621L29.6032 14.1721L29.6066 14.1822L28.6579 14.4984ZM12.5938 14.2109L11.6677 13.8336L11.9214 13.2109H12.5938V14.2109ZM28.3165 24.543H29.3165V25.543H28.3165V24.543ZM12.8633 24.543V25.543H11.8741L11.8634 24.5537L12.8633 24.543ZM12.8094 19.5476L11.8095 19.5584L11.8095 19.5549L12.8094 19.5476ZM12.7735 14.5703L11.7735 14.5775L11.7662 13.5656L12.7781 13.5703L12.7735 14.5703ZM20.536 14.6062L20.5406 13.6062L20.5429 13.6063L20.536 14.6062ZM28.3165 14.6601L28.3234 13.6602L29.3165 13.667V14.6601H28.3165ZM13.3325 15.0472C13.3629 14.9661 13.3612 14.9277 13.3496 15.0148C13.3416 15.0752 13.3325 15.1666 13.3234 15.2936C13.3053 15.5461 13.2901 15.8982 13.279 16.3426C13.257 17.229 13.2524 18.4466 13.2703 19.8947L11.2704 19.9194C11.2524 18.4565 11.2568 17.2124 11.2797 16.2929C11.2911 15.8343 11.3073 15.4475 11.3285 15.1508C11.3391 15.0033 11.3516 14.8676 11.367 14.7514C11.3789 14.6621 11.4024 14.498 11.4598 14.345L13.3325 15.0472ZM13.2703 19.8934C13.2974 21.8892 13.3197 23.0505 13.3627 23.732C13.3847 24.0804 13.4092 24.2449 13.4253 24.3132C13.4502 24.4183 13.4184 24.1458 13.1179 23.9608L12.0697 25.6641C11.6524 25.4073 11.5285 24.9821 11.4792 24.7744C11.4213 24.53 11.3896 24.2216 11.3667 23.858C11.3198 23.1154 11.2973 21.8959 11.2705 19.9206L13.2703 19.8934ZM13.1238 23.9645C13.0134 23.8955 12.9191 23.8691 12.906 23.8653C12.8902 23.8606 12.8785 23.8578 12.8723 23.8564C12.8659 23.8549 12.8622 23.8542 12.862 23.8542C12.8617 23.8541 12.8635 23.8544 12.8676 23.8551C12.8717 23.8558 12.8775 23.8566 12.8851 23.8577C12.9006 23.8598 12.9211 23.8623 12.9473 23.8651C13.0564 23.8768 13.2219 23.889 13.445 23.9008C13.8877 23.9242 14.5074 23.9436 15.2513 23.9587C16.7362 23.9888 18.684 24.0011 20.6303 23.9967C22.5766 23.9922 24.5141 23.9709 25.9787 23.9341C26.7126 23.9156 27.3189 23.8935 27.7457 23.8683C27.9614 23.8555 28.1163 23.8428 28.2135 23.8313C28.2648 23.8252 28.2791 23.8219 28.2702 23.8238C28.2671 23.8244 28.235 23.8312 28.1887 23.8478C28.1786 23.8514 28.0051 23.9073 27.8429 24.0694L29.2572 25.4837C29.0866 25.6542 28.8973 25.7184 28.8644 25.7302C28.7953 25.755 28.7333 25.7698 28.6934 25.7785C28.611 25.7963 28.5242 25.8085 28.4488 25.8174C28.2928 25.8359 28.0918 25.8513 27.8638 25.8648C27.403 25.892 26.7699 25.9148 26.0289 25.9335C24.5438 25.9708 22.59 25.9922 20.6349 25.9967C18.6797 26.0012 16.7159 25.9888 15.2107 25.9583C14.4595 25.943 13.8145 25.9231 13.3393 25.898C13.1036 25.8855 12.8967 25.8711 12.7349 25.8538C12.6555 25.8453 12.5706 25.8345 12.4915 25.8195C12.4522 25.8121 12.4001 25.8011 12.3435 25.7845C12.3027 25.7726 12.1877 25.7379 12.0638 25.6605L13.1238 23.9645ZM27.8429 24.0694C27.74 24.1724 27.6905 24.2711 27.6729 24.3089C27.6522 24.3532 27.6439 24.3831 27.6431 24.386C27.6418 24.3905 27.6497 24.3616 27.6608 24.2788C27.6824 24.117 27.7029 23.8541 27.7194 23.457C27.7521 22.6692 27.7657 21.4527 27.7657 19.6734H29.7657C29.7657 21.452 29.7523 22.7061 29.7177 23.54C29.7005 23.9537 29.6771 24.2895 29.6432 24.5437C29.6264 24.6689 29.6036 24.8025 29.5684 24.9276C29.546 25.0072 29.4731 25.2678 29.2572 25.4837L27.8429 24.0694ZM27.7657 19.6734C27.7657 18.3316 27.7523 17.0856 27.7322 16.1574C27.7222 15.6925 27.7106 15.312 27.6985 15.0409C27.6923 14.9044 27.6864 14.8029 27.6811 14.7353C27.6783 14.7007 27.6764 14.6836 27.6759 14.6791C27.6719 14.6476 27.6776 14.72 27.7092 14.8146L29.6066 14.1822C29.6448 14.297 29.6573 14.4065 29.66 14.428C29.6662 14.4766 29.671 14.5285 29.6749 14.5781C29.6828 14.6786 29.6899 14.8059 29.6965 14.9515C29.7096 15.2447 29.7216 15.6425 29.7318 16.1142C29.7522 17.0593 29.7657 18.3199 29.7657 19.6734H27.7657ZM27.7161 14.8348C27.808 15.0921 27.9898 15.2347 28.1055 15.2964C28.1916 15.3422 28.2382 15.3429 28.1713 15.3304C28.0446 15.3068 27.7693 15.2799 27.2069 15.2597C26.1061 15.2201 24.1285 15.2109 20.5719 15.2109V13.2109C24.113 13.2109 26.1335 13.2197 27.2788 13.261C27.8394 13.2812 28.2492 13.3105 28.538 13.3643C28.6788 13.3906 28.8659 13.4353 29.046 13.5313C29.2557 13.6431 29.4852 13.8418 29.5996 14.1621L27.7161 14.8348ZM20.5719 15.2109H12.5938V13.2109H20.5719V15.2109ZM13.5199 14.5882L13.3222 15.0734L11.4701 14.3188L11.6677 13.8336L13.5199 14.5882ZM29.3165 19.6015V24.543H27.3165V19.6015H29.3165ZM28.3165 25.543H20.5899V23.543H28.3165V25.543ZM20.5899 25.543H12.8633V23.543H20.5899V25.543ZM11.8634 24.5537L11.8095 19.5584L13.8094 19.5368L13.8633 24.5322L11.8634 24.5537ZM11.8095 19.5549L11.7735 14.5775L13.7735 14.5631L13.8094 19.5404L11.8095 19.5549ZM12.7781 13.5703L20.5406 13.6062L20.5314 15.6062L12.7689 15.5703L12.7781 13.5703ZM20.5429 13.6063L28.3234 13.6602L28.3095 15.6601L20.5291 15.6062L20.5429 13.6063ZM29.3165 14.6601V19.6015H27.3165V14.6601H29.3165Z" fill="#023059" mask="url(#path-4-inside-2_394_126)"/>
<path d="M13.4922 16.9063C13.4922 17.8586 13.5641 18.5234 13.6719 18.5234C13.7797 18.5234 13.8516 17.8586 13.8516 16.9063C13.8516 15.9539 13.7797 15.2891 13.6719 15.2891C13.5641 15.2891 13.4922 15.9539 13.4922 16.9063Z" fill="#023059"/>
<path d="M19.2422 19.6015C19.2422 22.1171 19.1704 22.0632 20.9313 20.464L21.9735 19.5116L20.7516 18.4695C20.0688 17.9124 19.4579 17.4452 19.386 17.4452C19.3141 17.4452 19.2422 18.4155 19.2422 19.6015ZM20.7336 19.0445C21.0032 19.296 21.2188 19.5296 21.2188 19.6015C21.2188 19.6554 20.8594 20.0148 20.4102 20.3741L19.6016 21.057V19.5835C19.6016 17.9663 19.5657 17.9843 20.7336 19.0445Z" fill="#023059"/>
<path d="M13.4922 19.8711C13.4922 20.1227 13.582 20.3203 13.6719 20.3203C13.7797 20.3203 13.8516 20.1227 13.8516 19.8711C13.8516 19.6195 13.7797 19.4219 13.6719 19.4219C13.582 19.4219 13.4922 19.6195 13.4922 19.8711Z" fill="#023059"/>
</svg>
